<?xml version="1.0" encoding="UTF-8" standalone="no"?> <svg id="Layer_1" data-name="Layer 1" xmlns="http://www.w3.org/2000/svg" viewBox="0 0 128 128"><defs><style>.cls-1{fill:#2e79bd;}.cls-2{fill:#2d3e50;}</style></defs><title>n</title><path class="cls-1" d="M110.72394,24.57148V20.98071a5.03249,5.03249,0,0,0-5.0325-5.0325H51.82484a5.03248,5.03248,0,0,0-5.03248,5.0325v3.59076Z"/><path class="cls-1" d="M46.79236,31.23713V52.465a5.03249,5.03249,0,0,0,5.03248,5.03251h53.86661a5.03251,5.03251,0,0,0,5.0325-5.03251V31.23713Zm59.17349,19.8a1.71319,1.71319,0,0,1-1.7132,1.71319H90.51075a1.7132,1.7132,0,0,1-1.71323-1.71319V47.02092a1.7132,1.7132,0,0,1,1.71323-1.71319h13.7419a1.71319,1.71319,0,0,1,1.7132,1.71319Z"/><path class="cls-2" d="M122.24674,81.043c-14.52382,9.48459-47.67118,28.19114-47.67118,28.19114a.78445.78445,0,0,0-.07294.04167c-4.99493,2.97716-10.23432,3.22622-15.47584,2.29558-.54067-.096-33.58434-4.1385-38.478-4.7349l-.13545-3.04577V67.29362c2.61861-.23963,7.56406-.441,8.11279-.47579,14.09316-.90991,27.67928,2.33382,41.40433,5.0323a6.17871,6.17871,0,0,1,4.98368,6.06373,5.68922,5.68922,0,0,1-.04515.73278,6.17429,6.17429,0,0,1-6.13322,5.44558H44.15084A1.954,1.954,0,0,0,42.14,85.985a1.87476,1.87476,0,0,0,.90645,1.58366,1.55572,1.55572,0,0,0,.97242.34384H65.71428c.66682-.04515,4.51136-.12157,7.15078-.26395a16.12364,16.12364,0,0,0,3.591-.61124l3.29236-.95158L116.69,70.579a5.94859,5.94859,0,0,1,5.5567,10.464Z"/><rect class="cls-1" x="3.05889" y="63.03644" width="13.32131" height="43.82737"/></svg>