<?xml version="1.0" encoding="UTF-8" standalone="no"?>
<!-- Generator: Adobe Illustrator 19.0.0, SVG Export Plug-In . SVG Version: 6.00 Build 0)  -->

<svg
   xmlns:osb="http://www.openswatchbook.org/uri/2009/osb"
   xmlns:dc="http://purl.org/dc/elements/1.1/"
   xmlns:cc="http://creativecommons.org/ns#"
   xmlns:rdf="http://www.w3.org/1999/02/22-rdf-syntax-ns#"
   xmlns:svg="http://www.w3.org/2000/svg"
   xmlns="http://www.w3.org/2000/svg"
   xmlns:sodipodi="http://sodipodi.sourceforge.net/DTD/sodipodi-0.dtd"
   xmlns:inkscape="http://www.inkscape.org/namespaces/inkscape"
   version="1.1"
   id="Capa_1"
   x="0px"
   y="0px"
   viewBox="0 0 53.867 53.867"
   style="enable-background:new 0 0 53.867 53.867;"
   xml:space="preserve"
   sodipodi:docname="unstar.svg"
   inkscape:version="0.92.4 (5da689c313, 2019-01-14)"><metadata
   id="metadata39"><rdf:RDF><cc:Work
       rdf:about=""><dc:format>image/svg+xml</dc:format><dc:type
         rdf:resource="http://purl.org/dc/dcmitype/StillImage" /></cc:Work></rdf:RDF></metadata><defs
   id="defs37"><linearGradient
     id="linearGradient6363"
     osb:paint="solid"><stop
       style="stop-color:#ffcc00;stop-opacity:1;"
       offset="0"
       id="stop6361" /></linearGradient></defs><sodipodi:namedview
   pagecolor="#ffffff"
   bordercolor="#666666"
   borderopacity="1"
   objecttolerance="10"
   gridtolerance="10"
   guidetolerance="10"
   inkscape:pageopacity="0"
   inkscape:pageshadow="2"
   inkscape:window-width="1440"
   inkscape:window-height="823"
   id="namedview35"
   showgrid="false"
   inkscape:zoom="4.381161"
   inkscape:cx="26.9335"
   inkscape:cy="26.9335"
   inkscape:window-x="0"
   inkscape:window-y="0"
   inkscape:window-maximized="1"
   inkscape:current-layer="Capa_1" />
<polygon
   style="fill:#ffcc00;fill-opacity:1;stroke:#000000;stroke-opacity:1;opacity:0.969;stroke-linejoin:round;stroke-width:0.5;stroke-miterlimit:4;stroke-dasharray:none;image-rendering:auto"
   points="26.934,1.318 35.256,18.182 53.867,20.887 40.4,34.013 43.579,52.549 26.934,43.798   10.288,52.549 13.467,34.013 0,20.887 18.611,18.182 "
   id="polygon2" />
<g
   id="g4">
</g>
<g
   id="g6">
</g>
<g
   id="g8">
</g>
<g
   id="g10">
</g>
<g
   id="g12">
</g>
<g
   id="g14">
</g>
<g
   id="g16">
</g>
<g
   id="g18">
</g>
<g
   id="g20">
</g>
<g
   id="g22">
</g>
<g
   id="g24">
</g>
<g
   id="g26">
</g>
<g
   id="g28">
</g>
<g
   id="g30">
</g>
<g
   id="g32">
</g>
<path
   style="fill:#ffeeaa;fill-opacity:0.98785424;stroke-width:0.5;stroke-miterlimit:4;stroke-dasharray:none;stroke:#000000;stroke-opacity:0.84615386;opacity:1;stroke-linejoin:round;stroke-linecap:round"
   d="m 10.773911,51.859412 c 2.74e-4,-0.03822 0.667912,-3.96345 1.483625,-8.722736 0.815713,-4.759289 1.482451,-8.816433 1.48164,-9.015875 C 13.738365,33.921356 10.82923,30.933582 7.2744312,27.4813 3.7196325,24.029019 0.82209,21.183885 0.83544748,21.158779 0.86348309,21.106086 18.216805,18.57955 18.550686,18.57955 c 0.121903,0 2.064402,-3.700336 4.316663,-8.222969 l 4.09502,-8.2229684 4.01925,8.1812614 4.019252,8.181261 8.371701,1.208455 c 4.604437,0.66465 8.673569,1.265057 9.042514,1.334238 0.647215,0.121359 0.440719,0.351284 -5.870613,6.536692 l -6.541423,6.410905 1.516369,8.729034 c 0.834005,4.800969 1.454688,8.790718 1.379297,8.866109 -0.07539,0.07539 -3.674453,-1.721391 -7.997917,-3.992846 -4.323463,-2.271457 -7.913092,-4.129921 -7.976947,-4.129921 -0.106517,0 -8.213728,4.240134 -13.810889,7.223201 -1.28676,0.685791 -2.339333,1.215626 -2.339052,1.17741 z"
   id="path24"
   inkscape:connector-curvature="0" /></svg>