<?xml version="1.0" encoding="UTF-8" standalone="no"?> <svg xmlns="http://www.w3.org/2000/svg" width="47" height="49.94" viewBox="0 0 47 49.94"><defs><style>.cls-1{fill:#111}.cls-2{fill:#00c569}</style></defs><title>Update</title><g id="Layer_2" data-name="Layer 2"><g id="Update"><path class="cls-1" d="M47 2.5a2.5 2.5 0 0 0-5 0v4.18A25 25 0 0 0 5.44 40.57a2.5 2.5 0 1 0 3.9-3.14 20 20 0 0 1 29.37-27L33.77 10a2.5 2.5 0 0 0-.45 5l11 1h.62l.24-.05.23-.07.23-.1.21-.11.2-.14.18-.15c.06-.05.11-.11.17-.17l.1-.21.13-.2.12-.22.09-.22a2 2 0 0 0 .07-.23 1.19 1.19 0 0 0 .05-.26.61.61 0 0 0 0-.13v-.12-.11zM20.66 44.6a2.23 2.23 0 0 0-.51-.19 19.48 19.48 0 0 1-4.08-1.52c-.61-.3-1.21-.64-1.79-1l-.22-.13a2.5 2.5 0 0 0-2.45 4.35c.58.37 1.17.71 1.79 1h1.31l.11.05a25.14 25.14 0 0 0 4 1.38 2.5 2.5 0 0 0 1.72-4.66z"/><g><path class="cls-2" d="M31.35 44.65a2.47 2.47 0 0 0-1.7-.2 19.8 19.8 0 0 1-3.16.5 2.5 2.5 0 0 0-.92 4.73 2.45 2.45 0 0 0 1.29.25 25.23 25.23 0 0 0 4-.62 2.5 2.5 0 0 0 1.84-3 2.47 2.47 0 0 0-1.35-1.66zM39.47 40.88a2.5 2.5 0 0 0-2.6.23c-.43.31-.88.61-1.33.89a2.51 2.51 0 0 0-.81 3.44 2.5 2.5 0 0 0 3.44.81c.57-.35 1.12-.72 1.66-1.12a2.51 2.51 0 0 0-.36-4.25zM44.8 35.87a2.5 2.5 0 1 0 .68 3.47 2.51 2.51 0 0 0-.68-3.47z"/></g></g></g></svg>